<svg xmlns="http://www.w3.org/2000/svg" width="2400" height="2400" viewBox="0 0 2400 2400"><defs><style>.cls-1{fill:#007cf7;}.cls-2{opacity:0.2;}.cls-3{fill:#fff;}</style></defs><title>quantify-repository-enum-logo</title><g id="Square_Background" data-name="Square Background"><rect class="cls-1" width="2400" height="2400"/></g><g id="Round_Background" data-name="Round Background"><circle class="cls-1" cx="1200" cy="1200" r="1200"/></g><g id="Shadow"><polygon class="cls-2" points="1729 576 2400 964 2400 2400 1620 2400 618 1822 1729 576"/></g><g id="Disk_Art_2" data-name="Disk Art 2"><path class="cls-3" d="M635.5,573H1715.07a30,30,0,0,1,21.22,8.79l49.42,49.42a30,30,0,0,1,8.79,21.22V1797a30,30,0,0,1-30,30H635.5a30,30,0,0,1-30-30V603A30,30,0,0,1,635.5,573Z"/><rect class="cls-1" x="889.5" y="611" width="634" height="380" rx="30" ry="30"/><rect class="cls-3" x="1263.5" y="655" width="158" height="308" rx="15" ry="15"/><rect class="cls-1" x="715.5" y="1084" width="965" height="700" rx="30" ry="30"/></g></svg>